<svg xmlns="http://www.w3.org/2000/svg" fill="none" stroke-linecap="square" stroke-miterlimit="10" viewBox="0 0 256 256"><clipPath id="a"><path d="M0 0h256v256H0z"/></clipPath><g clip-path="url(#a)"><path d="M0 0h256v256H0z"/><path fill="#0b5394" fill-rule="evenodd" d="M0 43C0 19 19 0 43 0h170a43 43 0 0 1 43 43v170c0 24-19 43-43 43H43c-24 0-43-19-43-43z"/><path d="M-75-5c0-36 30-66 67-66h265a66 66 0 0 1 66 66v266c0 36-30 66-66 66H-8c-37 0-67-30-67-66z"/><path fill="#fff" d="m91 162-1 7-5 6-7 3-9 1-12-1q-5-1-8-4-4-3-6-8-2-4-2-11H14q0 11 5 19 4 8 11 14 8 7 18 10t21 3 19-3q9-2 16-7t10-12q4-8 4-17 0-11-5-19t-13-14l-12-7-14-5q-7-1-12-4l-9-4-6-6q-2-3-2-7t2-7l4-6 7-3q4-2 10-2t10 2 7 4l5 7 1 9h27q0-10-4-18-4-7-10-13-7-6-16-9t-20-3l-20 2q-9 3-15 8-7 5-11 13-3 7-3 16l2 14q3 7 9 12 5 5 14 10l21 8 12 4 9 5 4 6zm93-15 27 52h29v-1l-30-58 10-6q5-4 8-9 3-4 5-11 2-6 2-13 0-10-4-18-3-8-10-14-7-5-16-8-9-2-21-2h-47v140h27v-52zm-20-22V81h20l10 1q4 1 7 4l5 7q2 4 2 10l-1 8-4 7-8 5q-5 2-11 2z"/></g></svg>